<svg xmlns="http://www.w3.org/2000/svg" width="1792" height="1792" id="battery" fill="rgb(172, 255, 47)"><path d="M1493.333 575.556v597.333H199.111V575.556h1294.222zm99.556 448h99.555V724.889h-99.555v-224q0-10.889-7-17.889T1568 476H124.444q-10.888 0-17.888 7-7 7-7 17.889v746.667q0 10.888 7 17.888 7 7 17.888 7H1568q10.889 0 17.889-7t7-17.888v-224zM1792 724.889v298.667q0 41.222-29.167 70.388-29.166 29.167-70.389 29.167v124.445q0 51.333-36.555 87.888Q1619.333 1372 1568 1372H124.444q-51.333 0-87.888-36.556Q0 1298.89 0 1247.556V500.889Q0 449.556 36.556 413q36.555-36.556 87.888-36.556H1568q51.333 0 87.889 36.556 36.555 36.556 36.555 87.889v124.444q41.223 0 70.39 29.167Q1792 683.667 1792 724.889Z"></path></svg>