<svg version="1.1" xmlns="http://www.w3.org/2000/svg" xmlns:xlink="http://www.w3.org/1999/xlink" width="131.37407" height="122.17145" viewBox="0,0,131.37407,122.17145"><g transform="translate(-174.31296,-118.25)"><g data-paper-data="{&quot;isPaintingLayer&quot;:true}" fill="#ffffff" fill-rule="nonzero" stroke="#ffffff" stroke-width="4.5" stroke-linecap="butt" stroke-linejoin="miter" stroke-miterlimit="10" stroke-dasharray="" stroke-dashoffset="0" style="mix-blend-mode: normal"><path d="M208.99109,211.27954v-40.55908c0.00001,-2.01793 1.50309,-3.71986 3.50555,-3.9693l54.01782,-6.72937c1.13824,-0.14185 2.2826,0.2118 3.14235,0.9711c0.85975,0.7593 1.35215,1.85116 1.3521,2.9982v54.01782c-0.00001,1.14702 -0.49242,2.23885 -1.35216,2.99813c-0.85974,0.75928 -2.00406,1.11295 -3.14229,0.97117l-54.01782,-6.72937c-2.00246,-0.24944 -3.50554,-1.95137 -3.50555,-3.9693zM238.39844,189h28.61047v-25.00891l-28.61047,3.56421zM238.39844,214.4447l28.61047,3.56421v-25.00891h-28.61047zM212.99109,189h21.40735v-20.94641l-21.40735,2.66687zM212.99109,211.27954l21.40735,2.66687v-20.94641h-21.40735z"/><path d="M194.58575,140h14.46491c0.3346,-7.21227 4.3556,-13.74529 10.64376,-17.29322c6.28816,-3.54793 13.95919,-3.61182 20.30558,-0.16912c6.34639,-3.4427 14.01742,-3.37881 20.30558,0.16912c6.28816,3.54793 10.30916,10.08095 10.64376,17.29322h14.46491c5.14736,-0.02605 9.47643,3.85375 10.01227,8.97321l8.51965,82.00006c0.28785,2.80608 -0.62554,5.60288 -2.5141,7.69818c-1.91649,2.11957 -4.64063,3.32886 -7.49817,3.32855h-107.8678c-2.85752,0.00032 -5.58164,-1.20897 -7.4981,-3.32855c-1.88859,-2.09531 -2.80201,-4.89213 -2.51417,-7.69824l8.51966,-81.99994c0.53582,-5.11948 4.86488,-8.99931 10.01226,-8.97327zM299.65045,234h-119.30084c0.86984,2.40655 3.15758,4.00735 5.71649,4h107.8678c2.55893,0.00736 4.84669,-1.59344 5.71655,-4zM243.77545,125.18811c4.31325,3.75078 6.90513,9.10222 7.17389,14.81189h16.02136c-0.54005,-8.97994 -7.97454,-15.98919 -16.9707,-16c-2.13121,-0.00001 -4.24318,0.40312 -6.22455,1.18811zM233.0293,140h13.9414c-0.305,-5.06859 -2.86232,-9.7347 -6.9707,-12.71881c-4.10838,2.98411 -6.6657,7.65022 -6.9707,12.71881zM213.0293,140h16.02136c0.26876,-5.70967 2.86064,-11.06111 7.17389,-14.81189c-1.98137,-0.78499 -4.09334,-1.18812 -6.22455,-1.18811c-8.99616,0.01081 -16.43065,7.02006 -16.9707,16zM188.55206,149.3866l-8.37561,80.6134h119.6471l-8.37562,-80.6134c-0.33525,-3.07562 -2.93988,-5.40092 -6.03369,-5.3866h-90.82849c-3.0938,-0.0143 -5.69842,2.31099 -6.03369,5.3866z"/></g></g></svg>